<svg id="Layer_1" data-name="Layer 1" xmlns="http://www.w3.org/2000/svg" viewBox="0 0 428 173.33"><defs><style>.cls-1{fill:#f4f4f2;}</style></defs><title>NF_logo</title><path class="cls-1" d="M96.93,47.5H85.05a1.72,1.72,0,0,0-1.71,1.71V63.77L74,51.51a10.21,10.21,0,0,0-8.1-4H56.69A5.54,5.54,0,0,0,51.15,53V89.42A5.54,5.54,0,0,0,56.69,95H68.61a1.71,1.71,0,0,0,1.7-1.71V78.54L79.6,90.89A10.16,10.16,0,0,0,87.73,95h9.2a5.54,5.54,0,0,0,5.54-5.54V53A5.54,5.54,0,0,0,96.93,47.5Zm-29.86,44H56.65a2.19,2.19,0,0,1-2.19-2.19V57.83L67.07,74.41Zm30.06,0H87.69a6.84,6.84,0,0,1-5.42-2.68l-27-35.29a1.64,1.64,0,0,1,1.3-2.64H66a6.86,6.86,0,0,1,5.42,2.67l27.06,35.3A1.64,1.64,0,0,1,97.13,91.52Zm2.06-7L86.58,68V50.91H97a2.19,2.19,0,0,1,2.19,2.19Z"/><path class="cls-1" d="M165.91,90.89h-7.57L139.49,69.32V90.89h-9.77V51.57h7.46l19,22.15V51.57h9.77Z"/><path class="cls-1" d="M196.4,79.44l-.05.17H176.46a6,6,0,0,0,6.3,4.51,4.83,4.83,0,0,0,4.28-2h9.25c-1.33,5.78-6.71,9.42-13.64,9.42-9.2,0-15.32-6.13-15.32-14.68s5.95-14.63,14.91-14.63c8.15,0,14.34,5.61,14.34,14.05A18.85,18.85,0,0,1,196.4,79.44Zm-20.06-5.32h11.45a5.19,5.19,0,0,0-5.55-4.68A5.73,5.73,0,0,0,176.34,74.12Z"/><path class="cls-1" d="M228.56,90.89h-9.37V89.32a14,14,0,0,1-7.69,2.14c-7.57,0-13.93-6.3-13.93-14.62s6.36-14.63,13.93-14.63a14,14,0,0,1,7.69,2.14v-1.5h9.37Zm-9.37-9.72V72.5a7.26,7.26,0,0,0-5.84-2.66,7,7,0,0,0,0,13.94A7.17,7.17,0,0,0,219.19,81.17Z"/><path class="cls-1" d="M249.75,71.29c-4.57.17-7.46,1.39-9.65,3.58v16h-9.37v-28h9.37v3a14,14,0,0,1,9.65-3.46Z"/><path class="cls-1" d="M280.38,60.19V51.58H251.07V90.89h9.77V77H275.5v-.17a16.94,16.94,0,0,1,2.1-8.33H260.84V60.19Z"/><path class="cls-1" d="M327.59,71.29c-4.57.17-7.46,1.39-9.66,3.58v16h-9.36v-28h9.36v3a14,14,0,0,1,9.66-3.46Z"/><path class="cls-1" d="M375.69,74.87v16h-9.42V76.38c0-4-1.91-5.9-5-5.9A5.45,5.45,0,0,0,357,72.79c.06.69.11,1.39.11,2.08v16h-9.36V76.38c0-4-2-5.9-5-5.9-1.45,0-2.83.69-4.22,2.49V90.89h-9.37v-28h9.37v1.68a9.86,9.86,0,0,1,7-2.55,11,11,0,0,1,8.62,3.76A13.7,13.7,0,0,1,364,62C370.72,62,375.69,66.9,375.69,74.87Z"/><path class="cls-1" d="M307.42,76.84c0,8.55-6.36,14.91-15.21,14.91S277,85.39,277,76.84s6.36-14.63,15.2-14.63S307.42,68.4,307.42,76.84Zm-8.85.06a6.34,6.34,0,1,0-12.66,0c0,3.75,2.54,6.76,6.36,6.76S298.57,80.65,298.57,76.9Z"/><path class="cls-1" d="M53,112.27h7.9v2.11H55.29v3.27h4.86v2.09H55.29v3.49h5.83v2.11H53Z"/><path class="cls-1" d="M61.86,115.56h2.32l2.43,7.69h.16l2.41-7.69h2.37l-3.34,9.78h-3Z"/><path class="cls-1" d="M71.82,120.45A5.16,5.16,0,1,1,77,125.58,5,5,0,0,1,71.82,120.45Zm8.08,0a2.92,2.92,0,1,0-2.93,3A2.9,2.9,0,0,0,79.9,120.45Z"/><path class="cls-1" d="M83.45,123.4h1.83V113.3H83.45v-2h4V123.4h1.83v1.94H83.45Z"/><path class="cls-1" d="M91.09,122v-6.4h2.2v5.82a2,2,0,0,0,2,2.06,2.11,2.11,0,0,0,2.13-2.17v-5.71h2.2v9.78H97.4v-1.12h-.17a2.91,2.91,0,0,1-2.63,1.36A3.43,3.43,0,0,1,91.09,122Z"/><path class="cls-1" d="M103,122.41V117.5h-1.7v-1.94h1.83v-2.75h2.09v2.75H108v1.94H105.2v4.89c0,.69.28,1,1,1h1.69v2h-1.71C104.23,125.34,103,124.48,103,122.41Z"/><path class="cls-1" d="M111,117.5h-1.72v-1.94h3.93v9.78H111Zm-.28-4.84a1.4,1.4,0,1,1,1.4,1.39A1.36,1.36,0,0,1,110.71,112.66Z"/><path class="cls-1" d="M115.19,120.45a5.17,5.17,0,1,1,5.16,5.13A5,5,0,0,1,115.19,120.45Zm8.09,0a2.93,2.93,0,1,0-2.93,3A2.9,2.9,0,0,0,123.28,120.45Z"/><path class="cls-1" d="M127.29,115.56h2.21v1.12h.16a2.92,2.92,0,0,1,2.64-1.36,3.43,3.43,0,0,1,3.51,3.62v6.4h-2.2v-5.88a2,2,0,0,0-2-2.06,2.1,2.1,0,0,0-2.13,2.17v5.77h-2.21Z"/><path class="cls-1" d="M137.4,120.45c0-3,1.94-5.13,4.55-5.13a3.49,3.49,0,0,1,3,1.43h.17v-1.19h2.2v7.49a.4.4,0,0,0,.45.43h.43v1.86h-1.66a1.33,1.33,0,0,1-1.4-1.23h-.17a3.25,3.25,0,0,1-2.93,1.47C139.37,125.58,137.4,123.42,137.4,120.45Zm7.73,0a2.76,2.76,0,1,0-5.49,0,2.76,2.76,0,1,0,5.49,0Z"/><path class="cls-1" d="M149.85,115.56H152V117h.14a2.91,2.91,0,0,1,2.58-1.68h.73v2.2h-1c-1.61,0-2.47,1.14-2.47,3v4.83h-2.2Z"/><path class="cls-1" d="M157.28,127.62h1.4a1.25,1.25,0,0,0,1.29-.91l.54-1.37H160l-3.36-9.78H159l2.3,7.67h.17l2.54-7.67h2.39l-4.6,12.16a3,3,0,0,1-3.1,1.92h-1.4Z"/><path class="cls-1" d="M171.51,122.56l2.09-.47a1.79,1.79,0,0,0,1.94,1.52c1.07,0,1.63-.4,1.63-1,0-2-5.3-.32-5.3-4.29,0-1.67,1.38-3,3.6-3a3.46,3.46,0,0,1,3.71,2.7l-2,.54a1.58,1.58,0,0,0-1.75-1.25c-.93,0-1.49.41-1.49,1,0,1.83,5.45.11,5.45,4.06,0,1.92-1.53,3.22-3.94,3.22C173.36,125.58,171.77,124.56,171.51,122.56Z"/><path class="cls-1" d="M180.64,120.45a5.17,5.17,0,1,1,5.16,5.13A5,5,0,0,1,180.64,120.45Zm8.09,0a2.93,2.93,0,1,0-2.93,3A2.9,2.9,0,0,0,188.73,120.45Z"/><path class="cls-1" d="M193.53,117.5h-1.72v-1.94h1.72v-1.29c0-2.08,1.25-2.93,3.13-2.93h1.65v1.92H196.7c-.69,0-1,.34-1,1v1.27h2.63v1.94h-2.63v7.84h-2.2Z"/><path class="cls-1" d="M201,122.41V117.5H199.3v-1.94h1.83v-2.75h2.09v2.75H206v1.94h-2.76v4.89c0,.69.28,1,.95,1h1.7v2h-1.72C202.25,125.34,201,124.48,201,122.41Z"/><path class="cls-1" d="M207.29,115.56h2.35l1.76,7.69h.16l1.8-7.69h2.93l1.77,7.69h.17l1.77-7.69h2.34l-2.6,9.78h-3.1l-1.77-7.67h-.11L213,125.34h-3.12Z"/><path class="cls-1" d="M222.6,120.45c0-3,1.94-5.13,4.56-5.13a3.49,3.49,0,0,1,3,1.43h.16v-1.19h2.21v7.49a.4.4,0,0,0,.45.43h.42v1.86h-1.66a1.34,1.34,0,0,1-1.4-1.23h-.17a3.25,3.25,0,0,1-2.93,1.47C224.58,125.58,222.6,123.42,222.6,120.45Zm7.73,0a2.77,2.77,0,0,0-2.74-3,2.81,2.81,0,0,0-2.75,3,2.76,2.76,0,1,0,5.49,0Z"/><path class="cls-1" d="M235.06,115.56h2.18V117h.15a2.9,2.9,0,0,1,2.58-1.68h.72v2.2h-1c-1.6,0-2.46,1.14-2.46,3v4.83h-2.2Z"/><path class="cls-1" d="M241.33,120.47a4.92,4.92,0,0,1,4.89-5.15c3,0,4.8,2.16,4.8,5.07V121h-7.41a2.54,2.54,0,0,0,2.69,2.69,2.48,2.48,0,0,0,2.46-1.65l2,.49a4.4,4.4,0,0,1-4.47,3A4.81,4.81,0,0,1,241.33,120.47Zm7.45-1.06a2.41,2.41,0,0,0-2.56-2.17,2.53,2.53,0,0,0-2.59,2.17Z"/><path class="cls-1" d="M252.22,124.24a1.39,1.39,0,0,1,1.38-1.36,1.36,1.36,0,0,1,1.36,1.36,1.34,1.34,0,0,1-1.36,1.34A1.36,1.36,0,0,1,252.22,124.24Z"/><path class="cls-1" d="M269.45,122.54h-5.66l-1,2.8h-2.33l4.57-13.07h3.18l4.53,13.07H270.4Zm-.71-2.07-2-6h-.19l-2,6Z"/><path class="cls-1" d="M272.81,120.45a5,5,0,0,1,5.06-5.13,4.65,4.65,0,0,1,4.78,3.65l-2.09.51a2.58,2.58,0,0,0-2.63-2.08,3.06,3.06,0,0,0,0,6.1,2.56,2.56,0,0,0,2.63-2.06l2.09.5a4.63,4.63,0,0,1-4.78,3.64A5,5,0,0,1,272.81,120.45Z"/><path class="cls-1" d="M283.79,120.45a5,5,0,0,1,5.06-5.13,4.65,4.65,0,0,1,4.78,3.65l-2.09.51a2.58,2.58,0,0,0-2.63-2.08,3.06,3.06,0,0,0,0,6.1,2.56,2.56,0,0,0,2.63-2.06l2.09.5a4.63,4.63,0,0,1-4.78,3.64A5,5,0,0,1,283.79,120.45Z"/><path class="cls-1" d="M294.77,120.47a4.92,4.92,0,0,1,4.89-5.15c3,0,4.8,2.16,4.8,5.07V121h-7.41a2.54,2.54,0,0,0,2.69,2.69,2.48,2.48,0,0,0,2.46-1.65l2,.49a4.39,4.39,0,0,1-4.46,3A4.81,4.81,0,0,1,294.77,120.47Zm7.45-1.06a2.41,2.41,0,0,0-2.56-2.17,2.53,2.53,0,0,0-2.59,2.17Z"/><path class="cls-1" d="M305.77,123.4h1.83V113.3h-1.83v-2h4V123.4h1.83v1.94h-5.86Z"/><path class="cls-1" d="M312.75,120.47a4.93,4.93,0,0,1,4.9-5.15c3,0,4.8,2.16,4.8,5.07V121H315a2.55,2.55,0,0,0,2.69,2.69,2.5,2.5,0,0,0,2.47-1.65l2,.49a4.38,4.38,0,0,1-4.46,3A4.81,4.81,0,0,1,312.75,120.47Zm7.45-1.06a2.4,2.4,0,0,0-2.55-2.17,2.54,2.54,0,0,0-2.6,2.17Z"/><path class="cls-1" d="M324.22,115.56h2.18V117h.15a2.91,2.91,0,0,1,2.58-1.68h.73v2.2h-1c-1.61,0-2.47,1.14-2.47,3v4.83h-2.2Z"/><path class="cls-1" d="M330.49,120.45c0-3,1.95-5.13,4.56-5.13a3.49,3.49,0,0,1,3,1.43h.17v-1.19h2.2v7.49a.4.4,0,0,0,.45.43h.43v1.86h-1.66a1.33,1.33,0,0,1-1.4-1.23H338a3.28,3.28,0,0,1-2.93,1.47C332.47,125.58,330.49,123.42,330.49,120.45Zm7.73,0a2.77,2.77,0,0,0-2.74-3,2.81,2.81,0,0,0-2.75,3,2.76,2.76,0,1,0,5.49,0Z"/><path class="cls-1" d="M343.9,122.41V117.5h-1.7v-1.94H344v-2.75h2.09v2.75h2.77v1.94h-2.77v4.89c0,.69.28,1,.95,1h1.7v2h-1.71C345.15,125.34,343.9,124.48,343.9,122.41Z"/><path class="cls-1" d="M350.1,120.47a4.92,4.92,0,0,1,4.89-5.15c3,0,4.8,2.16,4.8,5.07V121h-7.41a2.54,2.54,0,0,0,2.69,2.69,2.48,2.48,0,0,0,2.46-1.65l2,.49a4.4,4.4,0,0,1-4.46,3A4.81,4.81,0,0,1,350.1,120.47Zm7.45-1.06a2.41,2.41,0,0,0-2.56-2.17,2.53,2.53,0,0,0-2.59,2.17Z"/><path class="cls-1" d="M360.91,120.45c0-2.91,1.89-5.13,4.52-5.13a3.54,3.54,0,0,1,3,1.49h.16v-5.47h2.21v14h-2.17v-1.15h-.17a3.48,3.48,0,0,1-2.91,1.39C362.93,125.58,360.91,123.42,360.91,120.45Zm7.75,0a2.8,2.8,0,0,0-2.76-3.08,3.09,3.09,0,1,0,2.76,3.08Z"/><path class="cls-1" d="M372.86,124.24a1.39,1.39,0,0,1,1.38-1.36,1.36,1.36,0,0,1,1.37,1.36,1.34,1.34,0,0,1-1.37,1.34A1.37,1.37,0,0,1,372.86,124.24Z"/></svg>